P2
16 16
255
97 102 93 148 198 185 188 196 190 186 115 97 101 100 101 100 99 106 131 201 189 219 148 131 212 207 183 111 104 104 95 107 96 150 209 198 96 145 180 158 199 207 205 206 193 151 107 96 97 91 195 176 109 198 206 204 202 157 217 214 214 211 134 98 103 115 213 189 181 190 189 189 199 189 195 181 189 200 123 113 102 71 111 155 186 196 197 186 184 195 194 145 191 144 71 103 100 143 105 140 185 187 190 190 191 196 190 153 182 156 98 128 126 166 29 138 140 187 192 168 140 161 127 107 167 139 90 132 102 91 85 71 86 156 182 122 97 78 85 128 139 106 84 114 104 114 128 168 180 189 193 182 183 175 148 86 137 104 112 103 103 99 157 175 188 175 171 194 25 181 65 37 138 35 127 101 94 108 102 140 178 148 142 171 175 140 27 31 107 42 76 100 100 103 85 108 151 85 81 104 184 145 24 30 35 76 94 103 103 99 77 76 158 71 84 144 181 141 13 37 64 105 103 96 96 97 101 75 122 171 172 183 139 25 37 56 88 95 101 106 99 104 102 96 77 108 118 79 14 25 52 85 96 94 107 94 
